<?xml version="1.0" encoding="UTF-8" standalone="no"?>
<!DOCTYPE svg PUBLIC "-//W3C//DTD SVG 1.1//EN"
 "http://www.w3.org/Graphics/SVG/1.1/DTD/svg11.dtd">
<!-- Generated by graphviz version 2.48.0 (0)
 -->
<!-- Title: comments Pages: 1 -->
<svg width="781pt" height="1055pt"
 viewBox="0.00 0.00 781.00 1055.18" xmlns="http://www.w3.org/2000/svg" xmlns:xlink="http://www.w3.org/1999/xlink">
<g id="graph0" class="graph" transform="scale(1 1) rotate(0) translate(4 1051.18)">
<title>comments</title>
<polygon fill="white" stroke="transparent" points="-4,4 -4,-1051.18 777,-1051.18 777,4 -4,4"/>
<!-- A -->
<g id="node1" class="node">
<title>A</title>
<ellipse fill="#7ccd7c" stroke="black" cx="265" cy="-1001.68" rx="45.49" ry="45.49"/>
<text text-anchor="middle" x="265" y="-997.98" font-family="Times,serif" font-size="14.00">Normal</text>
</g>
<!-- A&#45;&gt;A -->
<g id="edge2" class="edge">
<title>A&#45;&gt;A</title>
<path fill="none" stroke="black" stroke-width="2" d="M308.03,-1016.57C319.65,-1015.78 328.5,-1010.82 328.5,-1001.68 328.5,-995.4 324.32,-991.09 317.93,-988.75"/>
<polygon fill="black" stroke="black" stroke-width="2" points="318.52,-985.3 308.03,-986.79 317.16,-992.17 318.52,-985.3"/>
<text text-anchor="middle" x="321.65" y="-1019.83" font-family="Times,serif" font-size="12.00">else</text>
</g>
<!-- B -->
<g id="node2" class="node">
<title>B</title>
<ellipse fill="#7ccd7c" stroke="black" cx="304" cy="-692.28" rx="48.99" ry="48.99"/>
<text text-anchor="middle" x="304" y="-688.58" font-family="Times,serif" font-size="14.00">Slash (/)</text>
</g>
<!-- A&#45;&gt;B -->
<g id="edge1" class="edge">
<title>A&#45;&gt;B</title>
<path fill="none" stroke="black" stroke-width="2" d="M270.28,-956.48C274.9,-934.63 280,-907.75 280,-883.18 280,-883.18 280,-883.18 280,-845.18 280,-813.32 283.31,-777.88 287.75,-749.25"/>
<polygon fill="black" stroke="black" stroke-width="2" points="291.26,-749.47 289.43,-739.03 284.36,-748.33 291.26,-749.47"/>
<text text-anchor="middle" x="278" y="-848.49" font-family="Times,serif" font-size="12.00">/</text>
</g>
<!-- F -->
<g id="node6" class="node">
<title>F</title>
<ellipse fill="#7ccd7c" stroke="black" cx="112" cy="-692.28" rx="79.81" ry="79.81"/>
<text text-anchor="middle" x="112" y="-696.08" font-family="Times,serif" font-size="14.00">Double</text>
<text text-anchor="middle" x="112" y="-681.08" font-family="Times,serif" font-size="14.00"> Quotation (&quot;)</text>
</g>
<!-- A&#45;&gt;F -->
<g id="edge10" class="edge">
<title>A&#45;&gt;F</title>
<path fill="none" stroke="black" stroke-width="2" d="M222.62,-984.16C185.24,-965.2 137,-930.51 137,-883.18 137,-883.18 137,-883.18 137,-845.18 137,-824.07 133.83,-801.7 129.69,-780.8"/>
<polygon fill="black" stroke="black" stroke-width="2" points="133.11,-780.07 127.65,-770.99 126.26,-781.49 133.11,-780.07"/>
<text text-anchor="middle" x="100" y="-882.05" font-family="Times,serif" font-size="12.00">D&#45;Quotation</text>
</g>
<!-- G -->
<g id="node7" class="node">
<title>G</title>
<ellipse fill="#7ccd7c" stroke="black" cx="681" cy="-692.28" rx="77.56" ry="77.56"/>
<text text-anchor="middle" x="681" y="-696.08" font-family="Times,serif" font-size="14.00">Single</text>
<text text-anchor="middle" x="681" y="-681.08" font-family="Times,serif" font-size="14.00"> Quotation (&#39;)</text>
</g>
<!-- A&#45;&gt;G -->
<g id="edge11" class="edge">
<title>A&#45;&gt;G</title>
<path fill="none" stroke="black" stroke-width="2" d="M310.32,-996.4C411.51,-985.58 647,-952.92 647,-883.18 647,-883.18 647,-883.18 647,-845.18 647,-822.69 650.6,-798.76 655.45,-776.71"/>
<polygon fill="black" stroke="black" stroke-width="2" points="658.91,-777.25 657.76,-766.72 652.09,-775.67 658.91,-777.25"/>
<text text-anchor="middle" x="480.12" y="-965.28" font-family="Times,serif" font-size="12.00">S&#45;Quotation</text>
</g>
<!-- B&#45;&gt;A -->
<g id="edge4" class="edge">
<title>B&#45;&gt;A</title>
<path fill="none" stroke="black" stroke-width="2" d="M304.62,-741.05C301.99,-770.91 298,-810.2 298,-845.18 298,-883.18 298,-883.18 298,-883.18 298,-905.73 293.71,-930.22 288.07,-950.98"/>
<polygon fill="black" stroke="black" stroke-width="2" points="284.63,-950.27 285.21,-960.85 291.36,-952.22 284.63,-950.27"/>
<text text-anchor="middle" x="293" y="-854.48" font-family="Times,serif" font-size="12.00">#</text>
</g>
<!-- C -->
<g id="node3" class="node">
<title>C</title>
<ellipse fill="#7ccd7c" stroke="black" cx="269" cy="-351.04" rx="77.19" ry="77.19"/>
<text text-anchor="middle" x="269" y="-347.34" font-family="Times,serif" font-size="14.00">SlashSlash (//)</text>
</g>
<!-- B&#45;&gt;C -->
<g id="edge3" class="edge">
<title>B&#45;&gt;C</title>
<path fill="none" stroke="black" stroke-width="2" d="M295.53,-644.24C290.86,-614.32 286,-574.7 286,-539.38 286,-539.38 286,-539.38 286,-501.38 286,-480.75 284.38,-458.61 282.14,-437.88"/>
<polygon fill="black" stroke="black" stroke-width="2" points="285.6,-437.36 280.99,-427.82 278.65,-438.15 285.6,-437.36"/>
<text text-anchor="middle" x="284" y="-539.6" font-family="Times,serif" font-size="12.00">/</text>
</g>
<!-- D -->
<g id="node4" class="node">
<title>D</title>
<ellipse fill="#7ccd7c" stroke="black" cx="456" cy="-351.04" rx="73.39" ry="73.39"/>
<text text-anchor="middle" x="456" y="-347.34" font-family="Times,serif" font-size="14.00">SlashStar (/*)</text>
</g>
<!-- B&#45;&gt;D -->
<g id="edge5" class="edge">
<title>B&#45;&gt;D</title>
<path fill="none" stroke="black" stroke-width="2" d="M339.27,-658.36C365.94,-629.76 398,-585.74 398,-539.38 398,-539.38 398,-539.38 398,-501.38 398,-475.23 405.82,-448.14 415.72,-424.33"/>
<polygon fill="black" stroke="black" stroke-width="2" points="418.99,-425.6 419.76,-415.04 412.57,-422.81 418.99,-425.6"/>
<text text-anchor="middle" x="394.5" y="-540.77" font-family="Times,serif" font-size="12.00">*</text>
</g>
<!-- C&#45;&gt;A -->
<g id="edge6" class="edge">
<title>C&#45;&gt;A</title>
<path fill="none" stroke="black" stroke-width="2" d="M240.52,-423.07C233.03,-447.48 227,-475.25 227,-501.38 227,-883.18 227,-883.18 227,-883.18 227,-906.23 233.7,-930.63 241.47,-951.19"/>
<polygon fill="black" stroke="black" stroke-width="2" points="238.28,-952.65 245.22,-960.65 244.79,-950.07 238.28,-952.65"/>
<text text-anchor="middle" x="227" y="-712.51" font-family="Times,serif" font-size="12.00">newline</text>
</g>
<!-- C&#45;&gt;C -->
<g id="edge19" class="edge">
<title>C&#45;&gt;C</title>
<path fill="none" stroke="black" stroke-width="2" d="M344.14,-370.37C356.13,-367.54 364.34,-361.1 364.34,-351.04 364.34,-343.96 360.28,-338.67 353.71,-335.17"/>
<polygon fill="black" stroke="black" stroke-width="2" points="354.74,-331.82 344.14,-331.7 352.34,-338.4 354.74,-331.82"/>
<text text-anchor="middle" x="366.86" y="-338.66" font-family="Times,serif" font-size="12.00">Else</text>
</g>
<!-- D&#45;&gt;D -->
<g id="edge20" class="edge">
<title>D&#45;&gt;D</title>
<path fill="none" stroke="black" stroke-width="2" d="M526.93,-370.64C539.05,-367.96 547.44,-361.43 547.44,-351.04 547.44,-343.73 543.29,-338.33 536.62,-334.84"/>
<polygon fill="black" stroke="black" stroke-width="2" points="537.53,-331.45 526.93,-331.43 535.2,-338.05 537.53,-331.45"/>
<text text-anchor="middle" x="549.77" y="-338.32" font-family="Times,serif" font-size="12.00">Else</text>
</g>
<!-- E -->
<g id="node5" class="node">
<title>E</title>
<ellipse fill="#7ccd7c" stroke="black" cx="456" cy="-44.85" rx="44.69" ry="44.69"/>
<text text-anchor="middle" x="456" y="-41.15" font-family="Times,serif" font-size="14.00">Star (*)</text>
</g>
<!-- D&#45;&gt;E -->
<g id="edge7" class="edge">
<title>D&#45;&gt;E</title>
<path fill="none" stroke="black" stroke-width="2" d="M447.49,-277.87C447,-253.37 447,-225.84 447,-200.69 447,-200.69 447,-200.69 447,-162.69 447,-141.96 447,-119.16 447.57,-99.25"/>
<polygon fill="black" stroke="black" stroke-width="2" points="451.07,-99.24 447.93,-89.13 444.08,-99 451.07,-99.24"/>
<text text-anchor="middle" x="443.5" y="-199.36" font-family="Times,serif" font-size="12.00">*</text>
</g>
<!-- E&#45;&gt;A -->
<g id="edge8" class="edge">
<title>E&#45;&gt;A</title>
<path fill="none" stroke="black" stroke-width="2" d="M411.03,-47.82C295.99,-54.09 0,-78.41 0,-162.69 0,-883.18 0,-883.18 0,-883.18 0,-973.97 131.6,-995.15 209.32,-999.75"/>
<polygon fill="black" stroke="black" stroke-width="2" points="209.28,-1003.25 219.44,-1000.27 209.64,-996.26 209.28,-1003.25"/>
<text text-anchor="middle" x="160.37" y="-79.4" font-family="Times,serif" font-size="12.00">/</text>
</g>
<!-- E&#45;&gt;D -->
<g id="edge9" class="edge">
<title>E&#45;&gt;D</title>
<path fill="none" stroke="black" stroke-width="2" d="M464.07,-89.13C465,-111.15 465,-138.35 465,-162.69 465,-200.69 465,-200.69 465,-200.69 465,-222.4 465,-245.89 464.69,-267.67"/>
<polygon fill="black" stroke="black" stroke-width="2" points="461.18,-267.81 464.51,-277.87 468.18,-267.93 461.18,-267.81"/>
<text text-anchor="middle" x="460" y="-199.36" font-family="Times,serif" font-size="12.00">#</text>
</g>
<!-- F&#45;&gt;A -->
<g id="edge18" class="edge">
<title>F&#45;&gt;A</title>
<path fill="none" stroke="black" stroke-width="2" d="M143.57,-765.95C150.12,-790.81 155,-818.97 155,-845.18 155,-883.18 155,-883.18 155,-883.18 155,-922.03 187.5,-952.36 217.25,-972.47"/>
<polygon fill="black" stroke="black" stroke-width="2" points="215.66,-975.61 225.95,-978.13 219.47,-969.74 215.66,-975.61"/>
<text text-anchor="middle" x="118" y="-868.86" font-family="Times,serif" font-size="12.00">D&#45;Quotation</text>
</g>
<!-- H -->
<g id="node8" class="node">
<title>H</title>
<ellipse fill="#7ccd7c" stroke="black" cx="101" cy="-351.04" rx="72.66" ry="72.66"/>
<text text-anchor="middle" x="101" y="-354.84" font-family="Times,serif" font-size="14.00">D&#45;Quotation</text>
<text text-anchor="middle" x="101" y="-339.84" font-family="Times,serif" font-size="14.00"> Slash (&quot;\)</text>
</g>
<!-- F&#45;&gt;H -->
<g id="edge12" class="edge">
<title>F&#45;&gt;H</title>
<path fill="none" stroke="black" stroke-width="2" d="M99.85,-613.24C98.63,-589.52 98,-563.39 98,-539.38 98,-539.38 98,-539.38 98,-501.38 98,-479.54 97.35,-455.91 96.8,-434.04"/>
<polygon fill="black" stroke="black" stroke-width="2" points="100.29,-433.71 96.55,-423.8 93.3,-433.88 100.29,-433.71"/>
<text text-anchor="middle" x="67" y="-504.77" font-family="Times,serif" font-size="12.00">Backslash</text>
</g>
<!-- I -->
<g id="node9" class="node">
<title>I</title>
<ellipse fill="#7ccd7c" stroke="black" cx="674" cy="-351.04" rx="71.34" ry="71.34"/>
<text text-anchor="middle" x="674" y="-354.84" font-family="Times,serif" font-size="14.00">S&#45;Quotation</text>
<text text-anchor="middle" x="674" y="-339.84" font-family="Times,serif" font-size="14.00"> Slash (&#39;\)</text>
</g>
<!-- G&#45;&gt;I -->
<g id="edge13" class="edge">
<title>G&#45;&gt;I</title>
<path fill="none" stroke="black" stroke-width="2" d="M678.89,-614.4C678.39,-590.38 678,-563.78 678,-539.38 678,-539.38 678,-539.38 678,-501.38 678,-479.11 677.55,-454.98 676.95,-432.75"/>
<polygon fill="black" stroke="black" stroke-width="2" points="680.45,-432.57 676.67,-422.68 673.45,-432.77 680.45,-432.57"/>
<text text-anchor="middle" x="647" y="-504.77" font-family="Times,serif" font-size="12.00">Backslash</text>
</g>
<!-- J -->
<g id="node10" class="node">
<title>J</title>
<ellipse fill="#7ccd7c" stroke="black" cx="674" cy="-44.85" rx="42.49" ry="42.49"/>
<text text-anchor="middle" x="674" y="-41.15" font-family="Times,serif" font-size="14.00">Others</text>
</g>
<!-- G&#45;&gt;J -->
<g id="edge15" class="edge">
<title>G&#45;&gt;J</title>
<path fill="none" stroke="black" stroke-width="2" d="M734.52,-635.36C754.76,-608.49 773,-574.53 773,-539.38 773,-539.38 773,-539.38 773,-162.69 773,-125.95 744.15,-94.82 717.59,-73.96"/>
<polygon fill="black" stroke="black" stroke-width="2" points="719.55,-71.05 709.46,-67.82 715.33,-76.64 719.55,-71.05"/>
<text text-anchor="middle" x="760" y="-495.69" font-family="Times,serif" font-size="12.00">Else</text>
</g>
<!-- H&#45;&gt;F -->
<g id="edge17" class="edge">
<title>H&#45;&gt;F</title>
<path fill="none" stroke="black" stroke-width="2" d="M113.51,-423.04C115.11,-447.82 116,-475.82 116,-501.38 116,-539.38 116,-539.38 116,-539.38 116,-559.79 116.46,-581.73 116.85,-602.41"/>
<polygon fill="black" stroke="black" stroke-width="2" points="113.35,-602.52 117.03,-612.46 120.35,-602.39 113.35,-602.52"/>
<text text-anchor="middle" x="103" y="-521.2" font-family="Times,serif" font-size="12.00">Else</text>
</g>
<!-- I&#45;&gt;J -->
<g id="edge14" class="edge">
<title>I&#45;&gt;J</title>
<path fill="none" stroke="black" stroke-width="2" d="M674,-279.38C674,-254.51 674,-226.36 674,-200.69 674,-200.69 674,-200.69 674,-162.69 674,-141.26 674,-117.62 674,-97.24"/>
<polygon fill="black" stroke="black" stroke-width="2" points="677.5,-97.21 674,-87.21 670.5,-97.21 677.5,-97.21"/>
<text text-anchor="middle" x="669" y="-199.36" font-family="Times,serif" font-size="12.00">#</text>
</g>
<!-- J&#45;&gt;A -->
<g id="edge16" class="edge">
<title>J&#45;&gt;A</title>
<path fill="none" stroke="black" stroke-width="2" d="M638.54,-67.82C610.13,-88.44 575,-122.15 575,-162.69 575,-883.18 575,-883.18 575,-883.18 575,-937.15 408.66,-975.1 319.68,-991.54"/>
<polygon fill="black" stroke="black" stroke-width="2" points="318.96,-988.11 309.75,-993.35 320.21,-995 318.96,-988.11"/>
<text text-anchor="middle" x="538.5" y="-796.52" font-family="Times,serif" font-size="12.00">S&#45;Quotation</text>
</g>
</g>
</svg>
